<?xml version="1.0" encoding="UTF-8"?>
<svg version="1.1" xmlns="http://www.w3.org/2000/svg" width="1535" height="442">
<path d="M0 0 C3.49698495 0.00314673 6.99310991 -0.02033774 10.48999023 -0.0456543 C60.70945635 -0.18891425 100.88354468 14.97378498 138.96459961 47.31567383 C142.74827652 45.5761444 145.05361959 43.29942835 147.96459961 40.31567383 C151.58528926 37.31567383 151.58528926 37.31567383 153.96459961 37.31567383 C153.96459961 36.65567383 153.96459961 35.99567383 153.96459961 35.31567383 C155.28459961 34.98567383 156.60459961 34.65567383 157.96459961 34.31567383 C157.96459961 33.65567383 157.96459961 32.99567383 157.96459961 32.31567383 C159.49902344 31.12988281 159.49902344 31.12988281 161.67163086 29.81176758 C162.87831421 29.07821045 162.87831421 29.07821045 164.109375 28.32983398 C164.98972412 27.80953613 165.87007324 27.28923828 166.77709961 26.75317383 C167.68129639 26.21740723 168.58549316 25.68164062 169.51708984 25.12963867 C187.82069862 14.4470941 206.35181216 6.91415615 227.21459961 3.00317383 C228.06449463 2.84357178 228.91438965 2.68396973 229.79003906 2.51953125 C243.88992543 0.08925675 258.20107078 0.11000008 272.46459961 0.12817383 C273.34344818 0.12877808 274.22229675 0.12938232 275.1277771 0.13000488 C320.8746887 0.21520917 363.52224535 9.61127318 398.96459961 40.31567383 C399.76897461 41.01047852 400.57334961 41.7052832 401.40209961 42.42114258 C432.21601106 69.62404878 454.26522041 106.1099182 459.96459961 147.31567383 C460.22359741 151.49279422 460.22695451 155.65369325 460.20510864 159.83781433 C460.20767192 161.65888426 460.20767192 161.65888426 460.21028697 163.51674348 C460.21299404 166.85544418 460.2068111 170.19390602 460.19673085 173.53257763 C460.18804198 177.14455135 460.19102034 180.75651852 460.1925354 184.36849976 C460.19358083 190.61618458 460.1873401 196.86382743 460.17605972 203.11150169 C460.15976116 212.14442958 460.15459227 221.17733731 460.15208374 230.21027831 C460.14771346 244.86789885 460.13442248 259.52549705 460.11547852 274.18310547 C460.09710243 288.41617725 460.0829544 302.64924296 460.07446289 316.88232422 C460.07367472 318.19973482 460.07367472 318.19973482 460.07287063 319.54375979 C460.07026043 323.95008379 460.06773304 328.35640783 460.06524682 332.76273191 C460.04453509 369.28039906 460.00767655 405.79802486 459.96459961 442.31567383 C425.31459961 442.31567383 390.66459961 442.31567383 354.96459961 442.31567383 C354.95525391 433.94248779 354.9459082 425.56930176 354.9362793 416.94238281 C354.90353073 390.11247837 354.85121666 363.28264605 354.78667866 336.45280036 C354.77666191 332.28119668 354.76681766 328.10959262 354.75708008 323.93798828 C354.75513871 323.10754142 354.75319733 322.27709455 354.75119713 321.42148263 C354.72022587 307.99741137 354.70321012 294.57335718 354.69140539 281.14925694 C354.67896852 267.36185469 354.65141009 253.57454165 354.60998654 239.78719574 C354.58492353 231.28835792 354.57147705 222.78966813 354.57317004 214.29079283 C354.57319993 208.45273323 354.55846368 202.61482377 354.53243533 196.77682274 C354.51787244 193.41487994 354.51171258 190.05350151 354.51879692 186.6914959 C354.56530476 161.21762948 350.86439889 142.58834735 333.01928711 123.20239258 C321.13362261 111.5652876 304.41338131 105.8361699 288.07006836 105.88208008 C286.96085526 105.87683823 285.85164215 105.87159637 284.70881653 105.86619568 C282.37505933 105.85980727 280.04126979 105.86107091 277.70751953 105.86962891 C274.17217516 105.87812558 270.63845627 105.84935139 267.10327148 105.81762695 C252.41056141 105.77208446 240.74550245 106.53599384 227.96459961 114.31567383 C226.97459961 114.31567383 225.98459961 114.31567383 224.96459961 114.31567383 C224.96459961 114.97567383 224.96459961 115.63567383 224.96459961 116.31567383 C223.97459961 116.31567383 222.98459961 116.31567383 221.96459961 116.31567383 C221.96459961 116.97567383 221.96459961 117.63567383 221.96459961 118.31567383 C221.37807617 118.56188477 220.79155273 118.8080957 220.18725586 119.06176758 C217.62154464 120.50920748 216.25198922 122.09788484 214.40209961 124.37817383 C211.29435168 128.20575647 211.29435168 128.20575647 207.96459961 129.31567383 C207.23136165 131.33075741 207.23136165 131.33075741 206.96459961 133.31567383 C206.30459961 133.31567383 205.64459961 133.31567383 204.96459961 133.31567383 C204.96459961 134.30567383 204.96459961 135.29567383 204.96459961 136.31567383 C204.30459961 136.31567383 203.64459961 136.31567383 202.96459961 136.31567383 C202.86018555 136.83774414 202.75577148 137.35981445 202.64819336 137.89770508 C201.40692582 142.28824568 199.31570494 146.36568932 197.43725586 150.51489258 C194.29587619 158.13773107 193.67011402 165.65478759 193.69285583 173.8278656 C193.687769 174.85034946 193.68268216 175.87283332 193.67744118 176.92630154 C193.66284217 180.33404456 193.66224812 183.74164204 193.66162109 187.14941406 C193.6539548 189.60113809 193.64540746 192.05285949 193.63604736 194.50457764 C193.61779102 199.77876187 193.60548458 205.05290854 193.59850883 210.32711601 C193.58829087 217.98090676 193.56619119 225.63462875 193.54112292 233.28838361 C193.50055593 245.74546384 193.46809386 258.20255072 193.44140625 270.65966797 C193.4390103 271.7767419 193.4390103 271.7767419 193.43656594 272.91638298 C193.43416759 274.03467233 193.43416759 274.03467233 193.43172079 275.17555338 C193.40911877 285.70216522 193.38447266 296.22876971 193.35742188 306.75537109 C193.35457766 307.86333842 193.35457766 307.86333842 193.35167598 308.99368893 C193.31970558 321.38582479 193.28392978 333.7779482 193.24638039 346.17006832 C193.22355165 353.78576557 193.20452505 361.4014546 193.19071365 369.01717366 C193.1799035 374.88477682 193.16446685 380.75236101 193.14752197 386.61994934 C193.14145196 389.00045476 193.13694579 391.38096487 193.13426399 393.76147652 C193.13294409 394.8714443 193.13162418 395.98141209 193.13026428 397.12501526 C193.12932392 398.5583445 193.12932392 398.5583445 193.12836456 400.02062988 C193.05415191 414.17263488 192.50982783 428.13974015 191.96459961 442.31567383 C156.65459961 442.31567383 121.34459961 442.31567383 84.96459961 442.31567383 C84.98031006 434.09918945 84.99602051 425.88270508 85.01220703 417.41723633 C85.06042697 391.08309368 85.09375697 364.7489522 85.1177956 338.41477704 C85.12154741 334.31956805 85.12543041 330.22435919 85.12939453 326.12915039 C85.13018146 325.31391891 85.13096839 324.49868743 85.13177917 323.65875196 C85.14480863 310.48429258 85.16844882 297.30987275 85.196058 284.13543677 C85.22418084 270.60233347 85.24079036 257.06925078 85.24686509 243.53611946 C85.25096732 235.19542639 85.26389128 226.85484513 85.28834901 218.5141865 C85.30429127 212.78316979 85.30898091 207.05221031 85.30510374 201.32117307 C85.30319528 198.02197026 85.30765384 194.72300096 85.32221603 191.42382431 C85.41676628 168.88616682 84.50608498 148.73488863 69.96459961 130.31567383 C69.34584961 129.53192383 68.72709961 128.74817383 68.08959961 127.94067383 C57.04457289 114.7579 40.98333048 106.94385728 23.96459961 105.31567383 C20.90209049 105.15560835 17.8434138 105.1055181 14.77709961 105.07739258 C13.91632813 105.06932083 13.05555664 105.06124908 12.16870117 105.05293274 C10.35345419 105.03917683 8.53818226 105.02841719 6.72290039 105.02050781 C4.8982769 105.00904133 3.07368552 104.98867505 1.24926758 104.95898438 C-13.26929575 104.7235411 -27.75099739 105.15374496 -40.33618164 113.36254883 C-42.03540039 114.31567383 -42.03540039 114.31567383 -45.03540039 114.31567383 C-45.03540039 114.97567383 -45.03540039 115.63567383 -45.03540039 116.31567383 C-46.64477539 117.42895508 -46.64477539 117.42895508 -48.78540039 118.62817383 C-52.35976889 120.76523013 -54.60135475 122.88997997 -57.03540039 126.31567383 C-57.53040039 126.79004883 -58.02540039 127.26442383 -58.53540039 127.75317383 C-60.27749921 129.46906196 -60.27749921 129.46906196 -62.09790039 132.50317383 C-63.05696289 133.89536133 -63.05696289 133.89536133 -64.03540039 135.31567383 C-64.69540039 135.31567383 -65.35540039 135.31567383 -66.03540039 135.31567383 C-66.20942383 136.14711914 -66.20942383 136.14711914 -66.38696289 136.99536133 C-67.12900184 139.65060912 -68.21535006 141.95641768 -69.41040039 144.44067383 C-74.78904861 156.1151386 -76.1816719 166.94254636 -76.19361877 179.67980957 C-76.19855675 180.80553832 -76.20349473 181.93126706 -76.20858234 183.0911088 C-76.22390669 186.85281133 -76.23230424 190.61449686 -76.24072266 194.3762207 C-76.25030516 197.07687626 -76.26027274 199.77752785 -76.27072144 202.47817993 C-76.29243025 208.28717851 -76.31059505 214.09617941 -76.32632637 219.90519714 C-76.34907615 228.30397507 -76.37721177 236.70272823 -76.40664565 245.10148507 C-76.45425909 258.72918547 -76.49754012 272.35689602 -76.53808594 285.98461914 C-76.57747271 299.21965322 -76.61890652 312.45467828 -76.66308594 325.68969727 C-76.66581021 326.50603227 -76.66853448 327.32236727 -76.67134131 328.16343969 C-76.68502131 332.25891025 -76.69874148 336.35438068 -76.71248162 340.44985104 C-76.8263482 374.40510758 -76.93237909 408.36038221 -77.03540039 442.31567383 C-112.01540039 442.31567383 -146.99540039 442.31567383 -183.03540039 442.31567383 C-183.07955194 406.80730257 -183.1164569 371.29895736 -183.13753105 335.79056648 C-183.14003224 331.5914974 -183.14262091 327.39242837 -183.14526367 323.19335938 C-183.14578829 322.3574559 -183.14631291 321.52155243 -183.14685343 320.66031855 C-183.15553866 307.1535205 -183.1712982 293.64673961 -183.18970598 280.13995171 C-183.20845752 266.26444843 -183.21952819 252.38895408 -183.22357738 238.51343864 C-183.22631157 229.96241624 -183.23492419 221.41144234 -183.25123332 212.86043488 C-183.26186518 206.98411326 -183.2649871 201.10781644 -183.26240315 195.23148591 C-183.26113142 191.84915796 -183.26409824 188.46698175 -183.27381134 185.08465767 C-183.38160666 145.58959889 -176.53575997 106.46086112 -152.31274414 74.03051758 C-150.97215411 72.33555564 -150.97215411 72.33555564 -150.03540039 70.31567383 C-149.37540039 70.31567383 -148.71540039 70.31567383 -148.03540039 70.31567383 C-147.37540039 68.66567383 -146.71540039 67.01567383 -146.03540039 65.31567383 C-145.37540039 65.31567383 -144.71540039 65.31567383 -144.03540039 65.31567383 C-143.69508789 64.23286133 -143.69508789 64.23286133 -143.34790039 63.12817383 C-141.76263793 59.73118284 -139.72864287 57.92105166 -137.03540039 55.31567383 C-136.16141602 54.43008789 -135.28743164 53.54450195 -134.38696289 52.63208008 C-124.37265583 42.517343 -124.37265583 42.517343 -119.03540039 38.31567383 C-118.37540039 38.31567383 -117.71540039 38.31567383 -117.03540039 38.31567383 C-117.03540039 37.65567383 -117.03540039 36.99567383 -117.03540039 36.31567383 C-115.71540039 35.98567383 -114.39540039 35.65567383 -113.03540039 35.31567383 C-113.03540039 34.65567383 -113.03540039 33.99567383 -113.03540039 33.31567383 C-111.71540039 32.98567383 -110.39540039 32.65567383 -109.03540039 32.31567383 C-109.03540039 31.65567383 -109.03540039 30.99567383 -109.03540039 30.31567383 C-108.04540039 30.31567383 -107.05540039 30.31567383 -106.03540039 30.31567383 C-106.03540039 29.65567383 -106.03540039 28.99567383 -106.03540039 28.31567383 C-103.70423646 26.978417 -101.37113251 25.6449157 -99.03540039 24.31567383 C-98.43050781 23.97084961 -97.82561523 23.62602539 -97.20239258 23.27075195 C-82.33740815 14.88293674 -66.88914406 8.49142005 -50.28540039 4.44067383 C-49.50777344 4.24957031 -48.73014648 4.0584668 -47.92895508 3.86157227 C-32.07793108 0.27474918 -16.18278908 -0.03032378 0 0 Z " fill="#030609" transform="translate(1075.035400390625,-0.315673828125)"/>
<path d="M0 0 C2.64318891 0.00141329 5.28630862 0.00083213 7.92948914 -0.00221252 C13.58072592 -0.00481261 19.23167024 0.01064483 24.88283348 0.03897667 C33.05304145 0.07991057 41.2231105 0.09266413 49.39340989 0.09891663 C62.65460566 0.10981342 75.91564616 0.14296109 89.17675781 0.19042969 C102.04556511 0.23644562 114.91432997 0.27177832 127.78320312 0.29296875 C128.57872619 0.29428237 129.37424926 0.29559598 130.19387909 0.29694941 C134.18546787 0.30347541 138.17705694 0.30979375 142.16864622 0.31600893 C175.1930288 0.36769793 208.21722102 0.45563595 241.24145508 0.56762695 C241.39508407 13.83217159 241.54326591 27.09676467 241.68441868 40.36144829 C241.75012842 46.520215 241.81774196 52.67894875 241.88964844 58.83764648 C241.95892281 64.77682482 242.02327205 70.71603765 242.08415031 76.65530777 C242.1082978 78.92561926 242.13424513 81.19591232 242.16198921 83.46618271 C242.20043064 86.6365241 242.23257533 89.80686962 242.26318359 92.97729492 C242.28260262 94.39717209 242.28260262 94.39717209 242.30241394 95.84573364 C242.31297318 97.13722321 242.31297318 97.13722321 242.32374573 98.45480347 C242.33618993 99.5803127 242.33618993 99.5803127 242.34888554 100.72855949 C242.24145508 102.56762695 242.24145508 102.56762695 241.24145508 104.56762695 C239.35217206 104.56982679 239.35217206 104.56982679 237.42472172 104.57207108 C207.51114655 104.60779035 177.59768676 104.66405644 147.68420455 104.74554791 C144.00057036 104.75556509 140.31693572 104.76540927 136.63330078 104.77514648 C135.53330512 104.77805854 135.53330512 104.77805854 134.41108733 104.78102943 C122.54462935 104.81203158 110.67819071 104.82902509 98.81169987 104.84082118 C86.63119768 104.853242 74.45079675 104.8807644 62.2703585 104.92224002 C54.75727213 104.94734884 47.24435376 104.96074615 39.73122483 104.95905653 C33.96544238 104.95902319 28.1998829 104.98002375 22.43417931 105.00879478 C20.07235294 105.01730622 17.71049076 105.01903532 15.3486557 105.01342964 C12.1196832 105.00678731 8.89172725 105.02471741 5.66285706 105.04864502 C4.26642049 105.03700439 4.26642049 105.03700439 2.84177309 105.0251286 C-4.36924073 105.11948782 -10.34213531 106.8899005 -16.07104492 111.38012695 C-24.60382273 122.44113523 -24.52212632 135.14049451 -23.05639648 148.54272461 C-22.02763665 155.536605 -19.37022408 161.15845047 -13.75854492 165.56762695 C-8.16156065 168.76590368 -3.91704503 169.69099073 2.47901917 169.70565796 C3.76125366 169.7111113 5.04348816 169.71656464 6.36457825 169.72218323 C7.78390498 169.72330302 9.20323177 169.72435354 10.62255859 169.7253418 C12.11939645 169.73001213 13.61623289 169.73515605 15.11306763 169.74073792 C18.33837818 169.75201399 21.56367953 169.76045111 24.78900337 169.76685715 C29.90672835 169.77756865 35.02438792 169.79782735 40.14207458 169.81997681 C54.69624795 169.88177746 69.25041896 169.93571233 83.8046875 169.96899414 C91.84197009 169.98745373 99.87914427 170.01653841 107.91634697 170.05699885 C112.16075083 170.07789798 116.40501902 170.09350132 120.64947701 170.09580612 C164.31267934 170.1265535 197.66481984 177.96533325 230.24145508 208.56762695 C230.83055664 209.09227539 231.4196582 209.61692383 232.02661133 210.1574707 C244.79795078 222.0230414 254.73048189 238.83829284 260.61645508 255.13012695 C260.84308838 255.75322754 261.06972168 256.37632812 261.30322266 257.01831055 C262.03245343 259.18433712 262.64709778 261.36060789 263.24145508 263.56762695 C263.50998291 264.51516846 263.77851074 265.46270996 264.05517578 266.43896484 C266.98702624 278.5029511 266.72962159 290.71072428 266.6875 303.06347656 C266.67899647 306.861637 266.70782115 310.6582863 266.73950195 314.45629883 C266.79333433 333.13880774 264.85999701 349.33800136 257.24145508 366.56762695 C256.87407227 367.40165039 256.50668945 368.23567383 256.12817383 369.0949707 C251.77890666 378.31661278 246.01239883 387.9377897 239.24145508 395.56762695 C238.58145508 395.56762695 237.92145508 395.56762695 237.24145508 395.56762695 C236.99137695 396.30754883 236.74129883 397.0474707 236.48364258 397.80981445 C235.1402566 400.79230031 233.71160355 402.43597465 231.36645508 404.69262695 C230.6884082 405.35520508 230.01036133 406.0177832 229.31176758 406.70043945 C223.91509525 411.56762695 223.91509525 411.56762695 221.24145508 411.56762695 C220.91145508 412.55762695 220.58145508 413.54762695 220.24145508 414.56762695 C218.17895508 415.25512695 218.17895508 415.25512695 216.24145508 415.56762695 C216.24145508 416.22762695 216.24145508 416.88762695 216.24145508 417.56762695 C214.7512207 418.69335938 214.7512207 418.69335938 212.64770508 419.9230957 C211.87313965 420.3773291 211.09857422 420.8315625 210.30053711 421.29956055 C209.0337915 422.02006592 209.0337915 422.02006592 207.74145508 422.75512695 C206.87504395 423.24835449 206.00863281 423.74158203 205.1159668 424.24975586 C183.86807534 436.16493459 162.56438696 441.75073502 138.13070679 441.6946106 C137.06845717 441.69617059 136.00620755 441.69773058 134.91176856 441.69933784 C131.38281496 441.70329933 127.85390503 441.70017721 124.32495117 441.69702148 C121.78311132 441.6983776 119.24127166 441.70015871 116.69943237 441.70233154 C110.53299881 441.70640733 104.3665812 441.70582602 98.20014744 441.7029189 C93.19135933 441.70065562 88.18257463 441.70035635 83.17378616 441.70144272 C82.10239003 441.70167257 82.10239003 441.70167257 81.00934953 441.70190706 C79.55822614 441.70222679 78.10710274 441.70255101 76.65597935 441.70287965 C63.07684643 441.7057255 49.49772028 441.70246041 35.91858847 441.69707929 C24.2597685 441.69260244 12.60095847 441.69339614 0.94213867 441.69799805 C-12.60568511 441.70334308 -26.15350299 441.705461 -39.70132768 441.70238578 C-41.14389634 441.70206723 -42.586465 441.70175286 -44.02903366 441.70144272 C-45.09366597 441.70121131 -45.09366597 441.70121131 -46.179806 441.70097522 C-51.18936699 441.70011056 -56.19892424 441.70157163 -61.20848465 441.70392227 C-67.93736134 441.70701045 -74.66621621 441.70482963 -81.39509201 441.69902802 C-83.871569 441.69769969 -86.34804756 441.69809575 -88.82452393 441.70029068 C-92.18891554 441.70299904 -95.55324544 441.69962508 -98.91763306 441.6946106 C-99.91108156 441.69684132 -100.90453006 441.69907204 -101.92808306 441.70137036 C-102.82200648 441.69876261 -103.7159299 441.69615486 -104.63694191 441.69346809 C-105.41434215 441.69330574 -106.19174239 441.69314339 -106.99270022 441.69297612 C-108.75854492 441.56762695 -108.75854492 441.56762695 -109.75854492 440.56762695 C-109.85388145 437.46255445 -109.88405619 434.37976238 -109.87207031 431.27441406 C-109.87221634 430.29891098 -109.87236237 429.3234079 -109.87251282 428.31834412 C-109.87181325 425.07719743 -109.86401883 421.83610742 -109.85620117 418.5949707 C-109.85433715 416.35437552 -109.85291317 414.11377994 -109.85191345 411.8731842 C-109.84808705 405.96303186 -109.83825572 400.05290391 -109.82720947 394.14276123 C-109.81699798 388.11706879 -109.8124164 382.09137242 -109.80737305 376.06567383 C-109.79663356 364.23298079 -109.77955568 352.4003059 -109.75854492 340.56762695 C-108.45779305 340.56431681 -107.15704119 340.56100666 -105.8168726 340.55759621 C-74.92582213 340.47854451 -44.03481968 340.38931169 -13.14383623 340.28757534 C-9.34003169 340.27505677 -5.53622687 340.26262395 -1.73242188 340.25024414 C-0.59653884 340.24654515 -0.59653884 340.24654515 0.56229133 340.24277143 C12.81673343 340.20306937 25.07118473 340.17031074 37.32565355 340.14012714 C49.90389262 340.10899117 62.48209275 340.0703726 75.06028801 340.0248369 C82.8190056 339.99698367 90.57769477 339.97493694 98.33644886 339.96036445 C104.29017625 339.94855628 110.24383643 339.92632739 116.1975193 339.90024376 C118.63675287 339.89118062 121.07600163 339.8854807 123.51525116 339.88341331 C126.84905504 339.88008193 130.18259272 339.86458028 133.51634216 339.84609985 C134.9594701 339.84900196 134.9594701 339.84900196 136.43175215 339.85196269 C142.31929312 339.80327176 147.5342401 339.03194846 153.24145508 337.56762695 C153.24145508 336.90762695 153.24145508 336.24762695 153.24145508 335.56762695 C154.00458008 334.82512695 154.76770508 334.08262695 155.55395508 333.31762695 C162.82804279 325.87437441 163.2105777 314.96691147 163.49145508 305.00512695 C163.0735705 290.67256255 163.0735705 290.67256255 156.24145508 278.56762695 C149.9982583 273.79424108 144.03671669 273.41609525 136.43969727 273.37817383 C135.54583659 273.36984937 134.65197592 273.36152491 133.73102856 273.35294819 C130.75014864 273.32625744 127.76926196 273.30635299 124.78833008 273.28637695 C122.68013629 273.268744 120.57194637 273.25064285 118.46376038 273.23210144 C113.97387258 273.19328159 109.48397408 273.15713435 104.99404907 273.12289429 C97.99140001 273.06880876 90.98886816 273.0045736 83.98632812 272.93798828 C81.65000926 272.91589729 79.31369029 272.89381781 76.97737122 272.87174988 C75.82376413 272.86085012 74.67015705 272.84995037 73.48159218 272.83872032 C58.9775131 272.70251435 44.47344996 272.57200306 29.96905708 272.47422218 C23.99259179 272.43314765 18.01633516 272.37965121 12.04008293 272.3145504 C8.76263133 272.27934974 5.48550899 272.25281759 2.20788574 272.23950195 C-34.22447887 272.08612775 -63.87285349 261.68636779 -90.44604492 236.31762695 C-102.72816934 223.62007774 -112.3847624 208.53482114 -118.57104492 192.00512695 C-118.84916016 191.26230469 -119.12727539 190.51948242 -119.41381836 189.75415039 C-123.7238544 177.64300161 -125.23458265 166.01197083 -125.22729492 153.21606445 C-125.23442461 151.66590105 -125.2421275 150.11574018 -125.25036621 148.56558228 C-125.26371717 145.33327894 -125.26542383 142.10121943 -125.25952148 138.86889648 C-125.25481587 135.59508475 -125.2686317 132.32224226 -125.30053711 129.04858398 C-125.55440707 102.70436832 -124.06985187 77.68071545 -108.09448242 55.45043945 C-106.8138845 53.64562017 -105.74827481 51.82464779 -104.69604492 49.88012695 C-101.47480715 44.37284948 -97.30307031 40.00131025 -92.75854492 35.56762695 C-92.23776367 35.02493164 -91.71698242 34.48223633 -91.18041992 33.9230957 C-89.74387193 32.43424621 -88.25433962 30.99694189 -86.75854492 29.56762695 C-86.09854492 29.56762695 -85.43854492 29.56762695 -84.75854492 29.56762695 C-84.26354492 28.08262695 -84.26354492 28.08262695 -83.75854492 26.56762695 C-81.19604492 25.38012695 -81.19604492 25.38012695 -78.75854492 24.56762695 C-78.75854492 23.90762695 -78.75854492 23.24762695 -78.75854492 22.56762695 C-71.70507646 17.02150656 -63.78942025 12.85243052 -55.57104492 9.31762695 C-54.87970459 9.01324707 -54.18836426 8.70886719 -53.47607422 8.39526367 C-35.69632613 1.06849866 -19.03536021 -0.14389349 0 0 Z " fill="#030609" transform="translate(124.758544921875,-0.567626953125)"/>
<path d="M0 0 C1.00322217 -0.00085442 2.00644435 -0.00170885 3.0400672 -0.00258917 C6.38720351 -0.00423063 9.73428923 0.00125552 13.0814209 0.00672913 C15.48651122 0.00701131 17.89160162 0.00685265 20.29669189 0.00628662 C26.14035106 0.00602962 31.98399377 0.01035797 37.82764918 0.01672428 C44.63026439 0.0238867 51.43287729 0.02537066 58.23549575 0.02651245 C70.36578156 0.02869837 82.49606062 0.03534597 94.62634277 0.04481506 C106.40629035 0.05400109 118.18623609 0.0610761 129.96618652 0.06532288 C131.05627422 0.06571696 131.05627422 0.06571696 132.1683839 0.06611901 C135.8143322 0.06742409 139.46028051 0.06868779 143.10622883 0.06993091 C173.32908521 0.08028919 203.5519292 0.09871977 233.77478027 0.12025452 C233.77478027 34.44025452 233.77478027 68.76025452 233.77478027 104.12025452 C208.57231934 104.15892639 208.57231934 104.15892639 182.86071777 104.19837952 C172.21487279 104.22354664 161.56904588 104.24971575 150.92321777 104.28041077 C145.32914308 104.29650132 139.73506777 104.31234458 134.14099121 104.32777405 C133.08940535 104.33068996 133.08940535 104.33068996 132.01657534 104.33366477 C120.72127111 104.36462511 109.42598718 104.38164311 98.13064854 104.39344874 C86.52529431 104.40589109 74.92005193 104.43375631 63.31476367 104.47486758 C56.8018207 104.49745622 50.28902855 104.51316674 43.77604294 104.51213837 C37.63809787 104.51139024 31.50048588 104.52940285 25.36262703 104.56142235 C23.11739306 104.56989793 20.87212164 104.57168732 18.62687874 104.56605721 C-2.63845679 104.43756071 -2.63845679 104.43756071 -21.67443848 113.16712952 C-23.22521973 114.12025452 -23.22521973 114.12025452 -26.22521973 114.12025452 C-26.22521973 114.78025452 -26.22521973 115.44025452 -26.22521973 116.12025452 C-26.86459473 116.22337952 -27.50396973 116.32650452 -28.16271973 116.43275452 C-28.84334473 116.65962952 -29.52396973 116.88650452 -30.22521973 117.12025452 C-30.55521973 118.11025452 -30.88521973 119.10025452 -31.22521973 120.12025452 C-32.67834473 121.47962952 -32.67834473 121.47962952 -34.47521973 122.87025452 C-37.13306346 125.04237321 -39.11096618 127.15401198 -41.03771973 129.99525452 C-41.75959473 131.02650452 -42.48146973 132.05775452 -43.22521973 133.12025452 C-43.88521973 133.12025452 -44.54521973 133.12025452 -45.22521973 133.12025452 C-45.33092285 133.66552795 -45.43662598 134.21080139 -45.54553223 134.77259827 C-46.37823907 137.64878685 -47.68721231 140.04303171 -49.10021973 142.68275452 C-55.36554907 155.04814073 -56.37697807 167.29849258 -56.3704834 180.96327209 C-56.37384201 181.99723618 -56.37720062 183.03120026 -56.38066101 184.09649658 C-56.39009421 187.48593882 -56.3921102 190.87533125 -56.39318848 194.26478577 C-56.39640613 196.6407371 -56.39977058 199.01668823 -56.40327454 201.39263916 C-56.40924656 206.36280272 -56.4111164 211.33294895 -56.41052246 216.30311584 C-56.4104209 222.6442281 -56.42407593 228.98522825 -56.44129467 235.32631397 C-56.45246008 240.23107404 -56.45444028 245.13580737 -56.45391273 250.04057884 C-56.4550859 252.37714207 -56.45947002 254.71370614 -56.4672451 257.05025673 C-56.54111974 281.54098794 -54.66449751 303.25873932 -37.21740723 322.21791077 C-19.09487999 339.52314755 1.68336942 341.57372795 25.46154785 341.53675842 C27.72797593 341.54414946 29.99440004 341.55285784 32.26081848 341.56277466 C38.37558507 341.58597021 44.49024996 341.59123946 50.60505509 341.59343386 C57.01076008 341.59911557 63.41639978 341.62239913 69.82206726 341.64402771 C80.56224341 341.67809996 91.30238759 341.70262169 102.04260254 341.71888733 C113.09567505 341.73566708 124.14872835 341.75587644 135.20178223 341.78236389 C135.88454768 341.78399731 136.56731313 341.78563074 137.27076844 341.78731366 C148.63802038 341.81471365 160.00525948 341.84622235 171.37249678 341.87914407 C179.00252598 341.90067627 186.63253544 341.91592166 194.26258814 341.92598367 C198.99021607 341.93297559 203.71782973 341.94385075 208.44544792 341.95562553 C210.6461775 341.96020224 212.84691146 341.96303534 215.04764557 341.96404839 C218.03747483 341.96560834 221.02722962 341.97315539 224.01704407 341.98222351 C225.34072745 341.98062113 225.34072745 341.98062113 226.69115192 341.97898638 C232.66074289 342.00621713 232.66074289 342.00621713 233.77478027 343.12025452 C233.87010355 346.19480213 233.90029407 349.24684609 233.88830566 352.32167053 C233.88845169 353.28742004 233.88859772 354.25316956 233.88874817 355.2481842 C233.88804861 358.4568655 233.88025424 361.66548955 233.87243652 364.87416077 C233.87057249 367.0923357 233.86914852 369.31051104 233.8681488 371.52868652 C233.86432243 377.37965523 233.85449113 383.23059929 233.84344482 389.08155823 C233.83323327 395.04692756 233.82865173 401.01230085 233.8236084 406.97767639 C233.81286897 418.69187996 233.79579112 430.40606519 233.77478027 442.12025452 C200.35583189 442.25790405 166.93695464 442.3634724 133.51778524 442.42664649 C129.56292244 442.43414979 125.60806021 442.44191581 121.65319824 442.44984436 C120.86593154 442.45141822 120.07866483 442.45299209 119.26754156 442.45461364 C106.55807477 442.48064675 93.84877257 442.52791241 81.13940307 442.58317129 C68.07637342 442.6394897 55.01342934 442.67265117 41.95028329 442.68478549 C33.90425852 442.69297515 25.85869912 442.7187399 17.81281778 442.76775332 C11.61956474 442.80353495 5.42665869 442.80693336 -0.76668358 442.7989006 C-3.29002668 442.8005382 -5.81338899 442.81229664 -8.33662605 442.83548737 C-23.68444722 442.96951256 -36.8391273 441.6085423 -51.22521973 436.12025452 C-52.05955111 435.80682185 -52.89388249 435.49338918 -53.75349665 435.17045856 C-74.04563991 427.48681173 -92.07613902 415.92879141 -107.97131348 401.16322327 C-109.53428656 399.74652496 -111.15174639 398.38856477 -112.80725098 397.08119202 C-116.42523557 394.14705911 -119.23808553 390.6783701 -122.22521973 387.12025452 C-123.26355957 385.91369202 -123.26355957 385.91369202 -124.32287598 384.68275452 C-151.09137816 352.95712229 -164.3429477 313.34871553 -164.38635254 272.05311584 C-164.3937999 270.32362953 -164.3937999 270.32362953 -164.40139771 268.5592041 C-164.41590788 264.77355838 -164.42280498 260.98795465 -164.42834473 257.20228577 C-164.43264804 255.21463999 -164.43695193 253.22699422 -164.44131923 251.23934859 C-164.45309173 245.69818705 -164.46065296 240.15703543 -164.46411443 234.61586267 C-164.46857201 227.52489502 -164.48602511 220.43412235 -164.51511502 213.34321386 C-164.53698782 207.81314728 -164.54683228 202.28313445 -164.54815555 196.75302523 C-164.54918659 193.47375074 -164.55625201 190.19469775 -164.57297516 186.91546059 C-164.76068738 147.25581876 -157.75426597 112.07606568 -136.85021973 78.12025452 C-136.42128418 77.41900452 -135.99234863 76.71775452 -135.55041504 75.99525452 C-134.50007108 74.33214007 -133.36973462 72.72002255 -132.22521973 71.12025452 C-131.56521973 71.12025452 -130.90521973 71.12025452 -130.22521973 71.12025452 C-129.97771973 70.39837952 -129.73021973 69.67650452 -129.47521973 68.93275452 C-128.10252381 65.8441887 -126.50168677 63.61014034 -124.22521973 61.12025452 C-123.56521973 61.12025452 -122.90521973 61.12025452 -122.22521973 61.12025452 C-121.95838379 60.53759827 -121.69154785 59.95494202 -121.41662598 59.35462952 C-117.58780239 52.17401611 -110.61385032 46.01256633 -104.22521973 41.12025452 C-103.56521973 41.12025452 -102.90521973 41.12025452 -102.22521973 41.12025452 C-101.89521973 40.13025452 -101.56521973 39.14025452 -101.22521973 38.12025452 C-99.16271973 37.43275452 -99.16271973 37.43275452 -97.22521973 37.12025452 C-97.22521973 36.46025452 -97.22521973 35.80025452 -97.22521973 35.12025452 C-91.81345502 31.12025452 -91.81345502 31.12025452 -89.22521973 31.12025452 C-89.22521973 30.46025452 -89.22521973 29.80025452 -89.22521973 29.12025452 C-88.23521973 29.12025452 -87.24521973 29.12025452 -86.22521973 29.12025452 C-86.22521973 28.46025452 -86.22521973 27.80025452 -86.22521973 27.12025452 C-82.57923017 25.08097222 -78.90838385 23.0915844 -75.22521973 21.12025452 C-74.63611816 20.80459534 -74.0470166 20.48893616 -73.44006348 20.16371155 C-50.74604796 8.11203292 -25.88793094 -0.08142572 0 0 Z " fill="#030609" transform="translate(595.2252197265625,-0.1202545166015625)"/>
</svg>
