<svg xmlns="http://www.w3.org/2000/svg" viewBox="0 0 580 200" fill="#0d0d0d">
  <!-- s — rounded bold S -->
  <path d="M128 0H48C22 0 0 22 0 48C0 74 22 96 48 96L80 96C94 96 106 108 106 122C106 136 94 148 80 148H0V200H82C114 200 140 176 140 144C140 112 116 88 80 88L50 88C34 88 24 78 24 64C24 50 36 40 50 40H128V0Z"/>
  <!-- c — rounded bold C -->
  <path d="M356 0H258C214 0 176 36 176 100C176 164 214 200 258 200H356V160H260C234 160 218 134 218 100C218 66 234 40 260 40H356V0Z"/>
  <!-- m — rounded bold M -->
  <path d="M580 200V72C580 32 556 0 520 0C502 0 486 8 474 22C462 8 446 0 428 0C392 0 368 32 368 72V200H410V74C410 56 420 42 436 42C452 42 462 56 462 74V200H502V74C502 56 514 42 530 42C546 42 558 56 558 74V200H580Z"/>
</svg>
