<svg xmlns="http://www.w3.org/2000/svg" viewBox="0 0 360 162" fill="none">
  <defs>
    <linearGradient id="brandLogoGradient" x1="180" y1="0" x2="180" y2="128">
      <stop offset="0%" stop-color="#5ea6ff" />
      <stop offset="100%" stop-color="#2f72d8" />
    </linearGradient>
  </defs>
  <path
    d="M93 11H35C16 11 0 27 0 47C0 67 16 83 35 83H58C67 83 74 90 74 99C74 108 67 115 58 115H0V127H60C79 127 95 111 95 91C95 71 79 55 60 55H37C28 55 21 48 21 39C21 30 28 23 37 23H93V11Z"
    fill="url(#brandLogoGradient)"
  />
  <path
    d="M198 11H149C118 11 96 35 96 69C96 103 118 127 149 127H198V115H151C130 115 117 98 117 69C117 40 130 23 151 23H198V11Z"
    fill="url(#brandLogoGradient)"
  />
  <path
    d="M214 127V39C214 18 229 0 251 0C265 0 277 6 285 18C293 6 305 0 319 0C341 0 356 18 356 39V127H334V41C334 30 326 22 316 22C306 22 298 30 298 41V127H276V41C276 30 268 22 258 22C248 22 240 30 240 41V127H214Z"
    fill="url(#brandLogoGradient)"
  />
  <text
    x="2"
    y="156"
    fill="url(#brandLogoGradient)"
    font-family="Arial, Helvetica, sans-serif"
    font-size="21"
    font-weight="700"
    letter-spacing="1.65"
  >
    SCANDINAVIAN CONCESSIONS MANAGEMENT
  </text>
</svg>
